<svg width="48" height="48" viewBox="0 0 48 48" fill="none" xmlns="http://www.w3.org/2000/svg" aria-hidden="true">
    <g>
        <path fill-rule="evenodd" clip-rule="evenodd" d="M24 5C20.2422 5 16.5687 6.11433 13.4442 8.20208C10.3196 10.2898 7.88436 13.2572 6.4463 16.729C5.00823 20.2008 4.63197 24.0211 5.36509 27.7067C6.09821 31.3924 7.90778 34.7778 10.565 37.435C13.2222 40.0922 16.6077 41.9018 20.2933 42.6349C23.9789 43.368 27.7992 42.9918 31.271 41.5537C34.7428 40.1156 37.7102 37.6804 39.7979 34.5558C41.8857 31.4313 43 27.7578 43 24C43 22.8954 43.8954 22 45 22C46.1046 22 47 22.8954 47 24C47 28.549 45.6511 32.9958 43.1238 36.7781C40.5965 40.5604 37.0044 43.5084 32.8017 45.2492C28.599 46.99 23.9745 47.4455 19.5129 46.5581C15.0514 45.6706 10.9532 43.4801 7.73655 40.2635C4.51995 37.0468 2.32941 32.9486 1.44195 28.4871C0.554489 24.0255 1.00997 19.401 2.75078 15.1983C4.4916 10.9956 7.43956 7.40347 11.2219 4.8762C15.0042 2.34893 19.451 1 24 1C25.1046 1 26 1.89543 26 3C26 4.10457 25.1046 5 24 5Z"  fill="#1b1b1b"/>
        <animateTransform attributeName="transform" attributeType="XML" type="rotate" from="0 24 24" to="360 24 24" dur="1s" repeatCount="indefinite" />
    </g>
</svg>
