<svg width="16" height="16" viewBox="0 0 16 16" fill="none" xmlns="http://www.w3.org/2000/svg">
    <g clip-path="url(#clip0_3693_249144)">
        <path d="M8 0.450195C8.54538 0.450195 8.9873 0.892119 8.9873 1.4375C8.9873 1.98288 8.54538 2.4248 8 2.4248C6.89737 2.4248 5.81915 2.75167 4.90234 3.36426C3.9857 3.97677 3.27157 4.84771 2.84961 5.86621C2.42765 6.88491 2.31711 8.00645 2.53223 9.08789C2.74737 10.1692 3.27801 11.1628 4.05762 11.9424C4.83723 12.722 5.83077 13.2526 6.91211 13.4678C7.99355 13.6829 9.11509 13.5723 10.1338 13.1504C11.1523 12.7284 12.0232 12.0143 12.6357 11.0977C13.2483 10.1809 13.5752 9.10263 13.5752 8C13.5752 7.45462 14.0171 7.0127 14.5625 7.0127C15.1079 7.0127 15.5498 7.45462 15.5498 8C15.5498 9.49323 15.1069 10.9528 14.2773 12.1943C13.4478 13.4359 12.2691 14.4041 10.8896 14.9756C9.51017 15.547 7.9918 15.6965 6.52734 15.4053C5.06279 15.114 3.71702 14.3948 2.66113 13.3389C1.60525 12.283 0.886045 10.9372 0.594727 9.47266C0.303496 8.0082 0.453015 6.48983 1.02441 5.11035C1.59587 3.73087 2.56414 2.55222 3.80566 1.72266C5.04725 0.893066 6.50677 0.450196 8 0.450195Z" fill="#1b1b1b"/>
        <animateTransform attributeName="transform" attributeType="XML" type="rotate" from="0 8 8" to="360 8 8" dur="1s" repeatCount="indefinite" />
    </g>
</svg>
