<svg width="64" height="64" viewBox="0 0 64 64" fill="none" xmlns="http://www.w3.org/2000/svg">
    <g>
        <path fill-rule="evenodd" clip-rule="evenodd" d="M32 6.5C26.9566 6.5 22.0264 7.99555 17.833 10.7975C13.6395 13.5995 10.3711 17.5821 8.44109 22.2416C6.51105 26.9011 6.00607 32.0283 6.98999 36.9748C7.97391 41.9213 10.4026 46.465 13.9688 50.0312C17.535 53.5975 22.0787 56.0261 27.0252 57.01C31.9717 57.9939 37.0989 57.489 41.7584 55.5589C46.418 53.6289 50.4005 50.3605 53.2025 46.167C56.0045 41.9736 57.5 37.0434 57.5 32C57.5 30.6193 58.6193 29.5 60 29.5C61.3807 29.5 62.5 30.6193 62.5 32C62.5 38.0323 60.7112 43.9292 57.3598 48.9449C54.0085 53.9606 49.245 57.8699 43.6719 60.1783C38.0987 62.4868 31.9662 63.0908 26.0498 61.914C20.1333 60.7371 14.6988 57.8323 10.4333 53.5668C6.16776 49.3013 3.26291 43.8667 2.08606 37.9503C0.909213 32.0338 1.51322 25.9013 3.82169 20.3282C6.13016 14.755 10.0394 9.99156 15.0551 6.64018C20.0708 3.28879 25.9677 1.5 32 1.5C33.3807 1.5 34.5 2.61929 34.5 4C34.5 5.38071 33.3807 6.5 32 6.5Z" fill="#1b1b1b"/>
        <animateTransform attributeName="transform" attributeType="XML" type="rotate" from="0 32 32" to="360 32 32" dur="1s" repeatCount="indefinite" />
    </g>
</svg>
